<svg width="135" height="40" viewBox="0 0 135 40" fill="none" xmlns="http://www.w3.org/2000/svg">
<g clip-path="url(#clip0_1_357)">
<path d="M134.032 35.2686C134.032 37.3846 132.318 39.0986 130.198 39.0986H4.72865C2.60965 39.0986 0.889648 37.3846 0.889648 35.2686V4.72563C0.889648 2.61063 2.60965 0.890625 4.72865 0.890625H130.197C132.318 0.890625 134.031 2.61063 134.031 4.72563L134.032 35.2686Z" fill="black"/>
<path d="M30.1281 19.7842C30.0991 16.5612 32.7671 14.9932 32.8891 14.9202C31.3781 12.7172 29.0361 12.4162 28.2131 12.3922C26.2461 12.1852 24.3381 13.5692 23.3361 13.5692C22.3141 13.5692 20.7711 12.4122 19.1081 12.4462C16.9681 12.4792 14.9661 13.7182 13.8681 15.6422C11.6021 19.5652 13.2921 25.3302 15.4631 28.5012C16.5491 30.0542 17.8181 31.7882 19.4791 31.7272C21.1041 31.6602 21.7111 30.6912 23.6721 30.6912C25.6151 30.6912 26.1851 31.7272 27.8791 31.6882C29.6231 31.6602 30.7211 30.1282 31.7691 28.5612C33.0241 26.7812 33.5281 25.0282 33.5481 24.9382C33.5071 24.9242 30.1611 23.6472 30.1281 19.7842Z" fill="white"/>
<path d="M26.928 10.3077C27.802 9.21475 28.4 7.72775 28.234 6.21875C26.969 6.27475 25.387 7.09375 24.476 8.16275C23.67 9.10475 22.95 10.6487 23.136 12.1007C24.557 12.2067 26.016 11.3837 26.928 10.3077Z" fill="white"/>
<path d="M53.6452 31.5033H51.3742L50.1302 27.5943H45.8062L44.6212 31.5033H42.4102L46.6942 18.1953H49.3402L53.6452 31.5033ZM49.7552 25.9543L48.6302 22.4793C48.5112 22.1243 48.2882 21.2883 47.9592 19.9723H47.9192C47.7882 20.5383 47.5772 21.3743 47.2872 22.4793L46.1822 25.9543H49.7552Z" fill="white"/>
<path d="M64.6619 26.5879C64.6619 28.2199 64.2209 29.5099 63.3389 30.4569C62.5489 31.2999 61.5679 31.7209 60.3969 31.7209C59.1329 31.7209 58.2249 31.2669 57.6719 30.3589H57.6319V35.4139H55.4999V25.0669C55.4999 24.0409 55.4729 22.9879 55.4209 21.9079H57.2959L57.4149 23.4289H57.4549C58.1659 22.2829 59.2449 21.7109 60.6929 21.7109C61.8249 21.7109 62.7699 22.1579 63.5259 23.0529C64.2839 23.9489 64.6619 25.1269 64.6619 26.5879ZM62.4899 26.6659C62.4899 25.7319 62.2799 24.9619 61.8579 24.3559C61.3969 23.7239 60.7779 23.4079 60.0019 23.4079C59.4759 23.4079 58.9979 23.5839 58.5709 23.9309C58.1429 24.2809 57.8629 24.7379 57.7319 25.3039C57.6659 25.5679 57.6329 25.7839 57.6329 25.9539V27.5539C57.6329 28.2519 57.8469 28.8409 58.2749 29.3219C58.7029 29.8029 59.2589 30.0429 59.9429 30.0429C60.7459 30.0429 61.3709 29.7329 61.8179 29.1149C62.2659 28.4959 62.4899 27.6799 62.4899 26.6659Z" fill="white"/>
<path d="M75.699 26.5879C75.699 28.2199 75.258 29.5099 74.375 30.4569C73.586 31.2999 72.605 31.7209 71.434 31.7209C70.17 31.7209 69.262 31.2669 68.71 30.3589H68.67V35.4139H66.538V25.0669C66.538 24.0409 66.511 22.9879 66.459 21.9079H68.334L68.453 23.4289H68.493C69.203 22.2829 70.282 21.7109 71.731 21.7109C72.862 21.7109 73.807 22.1579 74.565 23.0529C75.32 23.9489 75.699 25.1269 75.699 26.5879ZM73.527 26.6659C73.527 25.7319 73.316 24.9619 72.894 24.3559C72.433 23.7239 71.816 23.4079 71.039 23.4079C70.512 23.4079 70.035 23.5839 69.607 23.9309C69.179 24.2809 68.9 24.7379 68.769 25.3039C68.704 25.5679 68.67 25.7839 68.67 25.9539V27.5539C68.67 28.2519 68.884 28.8409 69.31 29.3219C69.738 29.8019 70.294 30.0429 70.98 30.0429C71.783 30.0429 72.408 29.7329 72.855 29.1149C73.303 28.4959 73.527 27.6799 73.527 26.6659Z" fill="white"/>
<path d="M88.0392 27.771C88.0392 28.903 87.6462 29.824 86.8572 30.535C85.9902 31.312 84.7832 31.7 83.2322 31.7C81.8002 31.7 80.6522 31.424 79.7832 30.871L80.2772 29.094C81.2132 29.66 82.2402 29.944 83.3592 29.944C84.1622 29.944 84.7872 29.762 85.2362 29.4C85.6832 29.038 85.9062 28.552 85.9062 27.946C85.9062 27.406 85.7222 26.951 85.3532 26.582C84.9862 26.213 84.3732 25.87 83.5172 25.553C81.1872 24.684 80.0232 23.411 80.0232 21.737C80.0232 20.643 80.4312 19.746 81.2482 19.048C82.0622 18.349 83.1482 18 84.5062 18C85.7172 18 86.7232 18.211 87.5262 18.632L86.9932 20.37C86.2432 19.962 85.3952 19.758 84.4462 19.758C83.6962 19.758 83.1102 19.943 82.6902 20.311C82.3352 20.64 82.1572 21.041 82.1572 21.516C82.1572 22.042 82.3602 22.477 82.7682 22.819C83.1232 23.135 83.7682 23.477 84.7042 23.846C85.8492 24.307 86.6902 24.846 87.2312 25.464C87.7702 26.08 88.0392 26.851 88.0392 27.771Z" fill="white"/>
<path d="M95.0881 23.5066H92.7381V28.1656C92.7381 29.3506 93.1521 29.9426 93.9821 29.9426C94.3631 29.9426 94.6791 29.9096 94.9291 29.8436L94.9881 31.4626C94.5681 31.6196 94.0151 31.6986 93.3301 31.6986C92.4881 31.6986 91.8301 31.4416 91.3551 30.9286C90.8821 30.4146 90.6441 29.5526 90.6441 28.3416V23.5046H89.2441V21.9046H90.6441V20.1476L92.7381 19.5156V21.9046H95.0881V23.5066Z" fill="white"/>
<path d="M105.691 26.626C105.691 28.101 105.269 29.312 104.427 30.259C103.544 31.234 102.372 31.72 100.911 31.72C99.5032 31.72 98.3822 31.253 97.5462 30.319C96.7102 29.385 96.2922 28.206 96.2922 26.785C96.2922 25.298 96.7222 24.08 97.5852 23.133C98.4462 22.185 99.6082 21.711 101.069 21.711C102.477 21.711 103.61 22.178 104.465 23.113C105.283 24.02 105.691 25.191 105.691 26.626ZM103.479 26.695C103.479 25.81 103.29 25.051 102.907 24.418C102.46 23.652 101.821 23.27 100.993 23.27C100.136 23.27 99.4852 23.653 99.0382 24.418C98.6552 25.052 98.4662 25.823 98.4662 26.735C98.4662 27.62 98.6552 28.379 99.0382 29.011C99.4992 29.777 100.143 30.159 100.974 30.159C101.788 30.159 102.427 29.769 102.888 28.991C103.281 28.346 103.479 27.579 103.479 26.695Z" fill="white"/>
<path d="M112.621 23.7829C112.41 23.7439 112.185 23.7239 111.949 23.7239C111.199 23.7239 110.619 24.0069 110.211 24.5739C109.856 25.0739 109.678 25.7059 109.678 26.4689V31.5039H107.547L107.567 24.9299C107.567 23.8239 107.54 22.8169 107.487 21.9089H109.344L109.422 23.7449H109.481C109.706 23.1139 110.061 22.6059 110.547 22.2249C111.022 21.8819 111.535 21.7109 112.088 21.7109C112.285 21.7109 112.463 21.7249 112.621 21.7499V23.7829Z" fill="white"/>
<path d="M122.156 26.2504C122.156 26.6324 122.131 26.9544 122.078 27.2174H115.682C115.707 28.1654 116.016 28.8904 116.61 29.3904C117.149 29.8374 117.846 30.0614 118.702 30.0614C119.649 30.0614 120.513 29.9104 121.29 29.6074L121.624 31.0874C120.716 31.4834 119.644 31.6804 118.407 31.6804C116.919 31.6804 115.751 31.2424 114.901 30.3674C114.053 29.4924 113.628 28.3174 113.628 26.8434C113.628 25.3964 114.023 24.1914 114.814 23.2304C115.642 22.2044 116.761 21.6914 118.169 21.6914C119.552 21.6914 120.599 22.2044 121.31 23.2304C121.873 24.0454 122.156 25.0534 122.156 26.2504ZM120.123 25.6974C120.137 25.0654 119.998 24.5194 119.709 24.0584C119.34 23.4654 118.773 23.1694 118.01 23.1694C117.313 23.1694 116.746 23.4584 116.313 24.0384C115.958 24.4994 115.747 25.0524 115.682 25.6964L120.123 25.6974Z" fill="white"/>
<path d="M49.0498 10.0067C49.0498 11.1837 48.6968 12.0697 47.9918 12.6647C47.3388 13.2137 46.4108 13.4887 45.2088 13.4887C44.6128 13.4887 44.1028 13.4627 43.6758 13.4107V6.97975C44.2328 6.88975 44.8328 6.84375 45.4808 6.84375C46.6258 6.84375 47.4888 7.09275 48.0708 7.59075C48.7228 8.15375 49.0498 8.95875 49.0498 10.0067ZM47.9448 10.0357C47.9448 9.27275 47.7428 8.68775 47.3388 8.27975C46.9348 7.87275 46.3448 7.66875 45.5678 7.66875C45.2378 7.66875 44.9568 7.69075 44.7238 7.73675V12.6258C44.8528 12.6458 45.0888 12.6547 45.4318 12.6547C46.2338 12.6547 46.8528 12.4317 47.2888 11.9857C47.7248 11.5397 47.9448 10.8898 47.9448 10.0357Z" fill="white"/>
<path d="M54.909 11.0351C54.909 11.7601 54.702 12.3541 54.288 12.8201C53.854 13.2991 53.279 13.5381 52.561 13.5381C51.869 13.5381 51.318 13.3091 50.907 12.8491C50.497 12.3901 50.292 11.8111 50.292 11.1131C50.292 10.3831 50.503 9.78409 50.927 9.31909C51.351 8.85409 51.921 8.62109 52.639 8.62109C53.331 8.62109 53.887 8.85009 54.308 9.30909C54.708 9.75509 54.909 10.3311 54.909 11.0351ZM53.822 11.0691C53.822 10.6341 53.728 10.2611 53.541 9.95009C53.321 9.57409 53.008 9.38609 52.601 9.38609C52.18 9.38609 51.86 9.57409 51.64 9.95009C51.452 10.2611 51.359 10.6401 51.359 11.0881C51.359 11.5231 51.453 11.8961 51.64 12.2071C51.867 12.5831 52.183 12.7711 52.591 12.7711C52.991 12.7711 53.305 12.5801 53.531 12.1971C53.725 11.8801 53.822 11.5041 53.822 11.0691Z" fill="white"/>
<path d="M62.7646 8.71875L61.2896 13.4327H60.3296L59.7186 11.3857C59.5636 10.8747 59.4376 10.3668 59.3396 9.86275H59.3206C59.2296 10.3808 59.1036 10.8877 58.9416 11.3857L58.2926 13.4327H57.3216L55.9346 8.71875H57.0116L57.5446 10.9598C57.6736 11.4898 57.7796 11.9947 57.8646 12.4727H57.8836C57.9616 12.0787 58.0906 11.5768 58.2726 10.9698L58.9416 8.71975H59.7956L60.4366 10.9218C60.5916 11.4588 60.7176 11.9758 60.8146 12.4738H60.8436C60.9146 11.9887 61.0216 11.4718 61.1636 10.9218L61.7356 8.71975H62.7646V8.71875Z" fill="white"/>
<path d="M68.1974 13.4302H67.1494V10.7302C67.1494 9.89819 66.8334 9.48219 66.1994 9.48219C65.8884 9.48219 65.6374 9.59619 65.4424 9.82519C65.2494 10.0542 65.1514 10.3242 65.1514 10.6332V13.4292H64.1034V10.0632C64.1034 9.64919 64.0904 9.20019 64.0654 8.71419H64.9864L65.0354 9.45119H65.0644C65.1864 9.22219 65.3684 9.03319 65.6074 8.88219C65.8914 8.70619 66.2094 8.61719 66.5574 8.61719C66.9974 8.61719 67.3634 8.75919 67.6544 9.04419C68.0164 9.39319 68.1974 9.91419 68.1974 10.6062V13.4302Z" fill="white"/>
<path d="M71.0878 13.4317H70.0408V6.55469H71.0878V13.4317Z" fill="white"/>
<path d="M77.2576 11.0351C77.2576 11.7601 77.0506 12.3541 76.6366 12.8201C76.2026 13.2991 75.6266 13.5381 74.9096 13.5381C74.2166 13.5381 73.6656 13.3091 73.2556 12.8491C72.8456 12.3901 72.6406 11.8111 72.6406 11.1131C72.6406 10.3831 72.8516 9.78409 73.2756 9.31909C73.6996 8.85409 74.2696 8.62109 74.9866 8.62109C75.6796 8.62109 76.2346 8.85009 76.6566 9.30909C77.0566 9.75509 77.2576 10.3311 77.2576 11.0351ZM76.1696 11.0691C76.1696 10.6341 76.0756 10.2611 75.8886 9.95009C75.6696 9.57409 75.3556 9.38609 74.9496 9.38609C74.5276 9.38609 74.2076 9.57409 73.9886 9.95009C73.8006 10.2611 73.7076 10.6401 73.7076 11.0881C73.7076 11.5231 73.8016 11.8961 73.9886 12.2071C74.2156 12.5831 74.5316 12.7711 74.9396 12.7711C75.3396 12.7711 75.6526 12.5801 75.8786 12.1971C76.0736 11.8801 76.1696 11.5041 76.1696 11.0691Z" fill="white"/>
<path d="M82.33 13.4311H81.389L81.311 12.8881H81.282C80.96 13.3211 80.501 13.5381 79.905 13.5381C79.46 13.5381 79.1 13.3951 78.829 13.1111C78.583 12.8531 78.46 12.5321 78.46 12.1511C78.46 11.5751 78.7 11.1361 79.183 10.8321C79.665 10.5281 80.343 10.3791 81.216 10.3861V10.2981C81.216 9.67709 80.89 9.36709 80.237 9.36709C79.772 9.36709 79.362 9.48409 79.008 9.71609L78.795 9.02809C79.233 8.75709 79.774 8.62109 80.412 8.62109C81.644 8.62109 82.262 9.27109 82.262 10.5711V12.3071C82.262 12.7781 82.285 13.1531 82.33 13.4311ZM81.242 11.8111V11.0841C80.086 11.0641 79.508 11.3811 79.508 12.0341C79.508 12.2801 79.574 12.4641 79.709 12.5871C79.844 12.7101 80.016 12.7711 80.221 12.7711C80.451 12.7711 80.666 12.6981 80.862 12.5531C81.059 12.4071 81.18 12.2221 81.225 11.9951C81.236 11.9441 81.242 11.8821 81.242 11.8111Z" fill="white"/>
<path d="M88.2847 13.4317H87.3547L87.3057 12.6747H87.2767C86.9797 13.2507 86.4737 13.5387 85.7627 13.5387C85.1947 13.5387 84.7217 13.3157 84.3467 12.8697C83.9717 12.4237 83.7847 11.8447 83.7847 11.1337C83.7847 10.3707 83.9877 9.75269 84.3957 9.28069C84.7907 8.84069 85.2747 8.62069 85.8507 8.62069C86.4837 8.62069 86.9267 8.83369 87.1787 9.26069H87.1987V6.55469H88.2477V12.1617C88.2477 12.6207 88.2597 13.0437 88.2847 13.4317ZM87.1987 11.4437V10.6577C87.1987 10.5217 87.1887 10.4117 87.1697 10.3277C87.1107 10.0757 86.9837 9.86369 86.7907 9.69269C86.5957 9.52169 86.3607 9.43569 86.0897 9.43569C85.6987 9.43569 85.3927 9.59069 85.1677 9.90169C84.9447 10.2127 84.8317 10.6097 84.8317 11.0947C84.8317 11.5607 84.9387 11.9387 85.1537 12.2297C85.3807 12.5397 85.6867 12.6947 86.0697 12.6947C86.4137 12.6947 86.6887 12.5657 86.8977 12.3067C87.0997 12.0677 87.1987 11.7797 87.1987 11.4437Z" fill="white"/>
<path d="M97.2479 11.0351C97.2479 11.7601 97.0409 12.3541 96.6269 12.8201C96.1929 13.2991 95.6189 13.5381 94.8999 13.5381C94.2089 13.5381 93.6579 13.3091 93.2459 12.8491C92.8359 12.3901 92.6309 11.8111 92.6309 11.1131C92.6309 10.3831 92.8419 9.78409 93.2659 9.31909C93.6899 8.85409 94.2599 8.62109 94.9789 8.62109C95.6699 8.62109 96.2269 8.85009 96.6469 9.30909C97.0469 9.75509 97.2479 10.3311 97.2479 11.0351ZM96.1619 11.0691C96.1619 10.6341 96.0679 10.2611 95.8809 9.95009C95.6599 9.57409 95.3479 9.38609 94.9399 9.38609C94.5199 9.38609 94.1999 9.57409 93.9789 9.95009C93.7909 10.2611 93.6979 10.6401 93.6979 11.0881C93.6979 11.5231 93.7919 11.8961 93.9789 12.2071C94.2059 12.5831 94.5219 12.7711 94.9299 12.7711C95.3299 12.7711 95.6449 12.5801 95.8709 12.1971C96.0639 11.8801 96.1619 11.5041 96.1619 11.0691Z" fill="white"/>
<path d="M102.883 13.4302H101.836V10.7302C101.836 9.89819 101.52 9.48219 100.885 9.48219C100.574 9.48219 100.323 9.59619 100.129 9.82519C99.935 10.0542 99.838 10.3242 99.838 10.6332V13.4292H98.789V10.0632C98.789 9.64919 98.777 9.20019 98.752 8.71419H99.672L99.721 9.45119H99.75C99.873 9.22219 100.055 9.03319 100.293 8.88219C100.578 8.70619 100.895 8.61719 101.244 8.61719C101.683 8.61719 102.049 8.75919 102.34 9.04419C102.703 9.39319 102.883 9.91419 102.883 10.6062V13.4302Z" fill="white"/>
<path d="M109.935 9.50197H108.781V11.792C108.781 12.374 108.986 12.665 109.392 12.665C109.58 12.665 109.736 12.649 109.859 12.616L109.886 13.411C109.679 13.489 109.407 13.528 109.072 13.528C108.658 13.528 108.336 13.402 108.103 13.15C107.869 12.898 107.753 12.474 107.753 11.879V9.50197H107.064V8.71697H107.753V7.85297L108.78 7.54297V8.71597H109.934L109.935 9.50197Z" fill="white"/>
<path d="M115.484 13.4317H114.435V10.7517C114.435 9.90669 114.119 9.48369 113.486 9.48369C113 9.48369 112.668 9.72869 112.486 10.2187C112.455 10.3217 112.437 10.4477 112.437 10.5957V13.4307H111.39V6.55469H112.437V9.39569H112.457C112.787 8.87869 113.26 8.62069 113.873 8.62069C114.307 8.62069 114.666 8.76269 114.951 9.04769C115.306 9.40269 115.484 9.93069 115.484 10.6287V13.4317Z" fill="white"/>
<path d="M121.207 10.8523C121.207 11.0403 121.193 11.1983 121.168 11.3273H118.025C118.039 11.7933 118.189 12.1483 118.48 12.3943C118.746 12.6143 119.089 12.7243 119.509 12.7243C119.974 12.7243 120.398 12.6503 120.78 12.5013L120.944 13.2293C120.497 13.4233 119.971 13.5203 119.362 13.5203C118.632 13.5203 118.057 13.3053 117.641 12.8753C117.223 12.4453 117.016 11.8683 117.016 11.1443C117.016 10.4333 117.209 9.84128 117.598 9.36928C118.004 8.86528 118.553 8.61328 119.246 8.61328C119.924 8.61328 120.439 8.86528 120.787 9.36928C121.068 9.76928 121.207 10.2643 121.207 10.8523ZM120.207 10.5813C120.215 10.2703 120.146 10.0023 120.004 9.77628C119.822 9.48528 119.545 9.33928 119.17 9.33928C118.828 9.33928 118.549 9.48128 118.336 9.76628C118.162 9.99328 118.059 10.2643 118.025 10.5813H120.207Z" fill="white"/>
</g>
<defs>
<clipPath id="clip0_1_357">
<rect width="135" height="40" fill="white"/>
</clipPath>
</defs>
</svg>
