<svg width="135" height="40" viewBox="0 0 135 40" fill="none" xmlns="http://www.w3.org/2000/svg">
<g clip-path="url(#clip0_1_389)">
<path d="M130 0H5C2.23858 0 0 2.23858 0 5V35C0 37.7614 2.23858 40 5 40H130C132.761 40 135 37.7614 135 35V5C135 2.23858 132.761 0 130 0Z" fill="black"/>
<path d="M45.9801 12.753C45.6501 12.873 45.0101 13.063 44.2501 13.063C43.4001 13.063 42.6901 12.843 42.1401 12.313C41.6501 11.843 41.3501 11.093 41.3501 10.213C41.3501 8.53297 42.5101 7.29297 44.4101 7.29297C45.0601 7.29297 45.5701 7.43297 45.8201 7.55297L45.6401 8.14297C45.3401 8.01297 44.9601 7.90297 44.3901 7.90297C43.0201 7.90297 42.1201 8.75297 42.1201 10.173C42.1201 11.593 42.9801 12.453 44.3001 12.453C44.7801 12.453 45.1001 12.383 45.2701 12.303V10.623H44.1201V10.033H45.9801V12.743V12.753Z" fill="white" stroke="white" stroke-width="0.2" stroke-miterlimit="10"/>
<path d="M50.1801 10.3517H47.9801V12.3917H50.4301V13.0017H47.2601V7.35172H50.3101V7.96172H47.9901V9.74171H50.1901V10.3417L50.1801 10.3517Z" fill="white" stroke="white" stroke-width="0.2" stroke-miterlimit="10"/>
<path d="M52.76 7.97171H51.04V7.35172H55.22V7.97171H53.49V13.0017H52.75V7.97171H52.76Z" fill="white" stroke="white" stroke-width="0.2" stroke-miterlimit="10"/>
<path d="M58.6901 7.35172V13.0017H57.9601V7.35172H58.6901Z" fill="white" stroke="white" stroke-width="0.2" stroke-miterlimit="10"/>
<path d="M61.2001 7.97171H59.4801V7.35172H63.6601V7.97171H61.9301V13.0017H61.1901V7.97171H61.2001Z" fill="white" stroke="white" stroke-width="0.2" stroke-miterlimit="10"/>
<path d="M71.2301 10.1217C71.2301 12.0617 70.0501 13.0917 68.6101 13.0917C67.1701 13.0917 66.0701 11.9317 66.0701 10.2317C66.0701 8.44172 67.1801 7.26172 68.6901 7.26172C70.2001 7.26172 71.2301 8.44172 71.2301 10.1217ZM66.8501 10.2117C66.8501 11.4217 67.5001 12.5017 68.6501 12.5017C69.8001 12.5017 70.4601 11.4417 70.4601 10.1517C70.4601 9.03172 69.8701 7.85172 68.6601 7.85172C67.4501 7.85172 66.8501 8.96172 66.8501 10.2017V10.2117Z" fill="white" stroke="white" stroke-width="0.2" stroke-miterlimit="10"/>
<path d="M72.3501 13.0017V7.35172H73.1501L74.9601 10.2117C75.3801 10.8717 75.7101 11.4717 75.9701 12.0417H75.9901C75.9201 11.2817 75.9101 10.5917 75.9101 9.71172V7.35172H76.6001V13.0017H75.8601L74.0701 10.1317C73.6801 9.50172 73.3001 8.86172 73.0101 8.25172H72.9801C73.0201 8.97172 73.0401 9.65172 73.0401 10.5917V13.0017H72.3501Z" fill="white" stroke="white" stroke-width="0.2" stroke-miterlimit="10"/>
<path d="M68.1398 21.7491C65.7898 21.7491 63.8698 23.5391 63.8698 25.9991C63.8698 28.4591 65.7898 30.2491 68.1398 30.2491C70.4898 30.2491 72.4098 28.4491 72.4098 25.9991C72.4098 23.5491 70.4898 21.7491 68.1398 21.7491ZM68.1398 28.5791C66.8498 28.5791 65.7398 27.5191 65.7398 25.9991C65.7398 24.4791 66.8498 23.4191 68.1398 23.4191C69.4298 23.4191 70.5398 24.4691 70.5398 25.9991C70.5398 27.5291 69.4298 28.5791 68.1398 28.5791ZM58.8298 21.7491C56.4798 21.7491 54.5598 23.5391 54.5598 25.9991C54.5598 28.4591 56.4798 30.2491 58.8298 30.2491C61.1798 30.2491 63.0998 28.4491 63.0998 25.9991C63.0998 23.5491 61.1798 21.7491 58.8298 21.7491ZM58.8298 28.5791C57.5398 28.5791 56.4298 27.5191 56.4298 25.9991C56.4298 24.4791 57.5398 23.4191 58.8298 23.4191C60.1198 23.4191 61.2298 24.4691 61.2298 25.9991C61.2298 27.5291 60.1198 28.5791 58.8298 28.5791ZM47.7498 23.0491V24.8491H52.0698C51.9398 25.8591 51.5998 26.6091 51.0898 27.1191C50.4598 27.7491 49.4798 28.4391 47.7598 28.4391C45.0998 28.4391 43.0198 26.2991 43.0198 23.6391C43.0198 20.9791 45.0998 18.8391 47.7598 18.8391C49.1898 18.8391 50.2398 19.3991 51.0098 20.1291L52.2798 18.8591C51.1998 17.8291 49.7698 17.0391 47.7498 17.0391C44.1098 17.0391 41.0498 19.9991 41.0498 23.6491C41.0498 27.2991 44.1098 30.2591 47.7498 30.2591C49.7198 30.2591 51.1998 29.6191 52.3598 28.4091C53.5498 27.2191 53.9198 25.5391 53.9198 24.1891C53.9198 23.7691 53.8898 23.3791 53.8198 23.0591H47.7498V23.0491ZM93.0598 24.4491C92.7098 23.4991 91.6298 21.7391 89.4198 21.7391C87.2098 21.7391 85.4098 23.4591 85.4098 25.9891C85.4098 28.3691 87.2098 30.2391 89.6298 30.2391C91.5798 30.2391 92.7098 29.0491 93.1698 28.3591L91.7198 27.3891C91.2398 28.0991 90.5798 28.5691 89.6298 28.5691C88.6798 28.5691 87.9998 28.1391 87.5698 27.2791L93.2598 24.9291L93.0698 24.4491H93.0598ZM87.2598 25.8691C87.2098 24.2291 88.5298 23.3891 89.4798 23.3891C90.2198 23.3891 90.8498 23.7591 91.0598 24.2891L87.2598 25.8691ZM82.6398 29.9891H84.5098V17.4891H82.6398V29.9891ZM79.5798 22.6891H79.5198C79.0998 22.1891 78.2998 21.7391 77.2798 21.7391C75.1498 21.7391 73.1998 23.6091 73.1998 26.0091C73.1998 28.4091 75.1498 30.2491 77.2798 30.2491C78.2898 30.2491 79.0998 29.7991 79.5198 29.2791H79.5798V29.8891C79.5798 31.5191 78.7098 32.3891 77.3098 32.3891C76.1698 32.3891 75.4598 31.5691 75.1698 30.8791L73.5398 31.5591C74.0098 32.6891 75.2498 34.0691 77.3098 34.0691C79.4998 34.0691 81.3498 32.7791 81.3498 29.6391V21.9991H79.5798V22.6891ZM77.4398 28.5691C76.1498 28.5691 75.0698 27.4891 75.0698 26.0091C75.0698 24.5291 76.1498 23.4191 77.4398 23.4191C78.7298 23.4191 79.7098 24.5191 79.7098 26.0091C79.7098 27.4991 78.7098 28.5691 77.4398 28.5691ZM101.82 17.4891H97.3498V29.9891H99.2198V25.2491H101.83C103.9 25.2491 105.93 23.7491 105.93 21.3691C105.93 18.9891 103.9 17.4891 101.83 17.4891H101.82ZM101.87 23.5191H99.2198V19.2291H101.87C103.27 19.2291 104.06 20.3891 104.06 21.3691C104.06 22.3491 103.27 23.5091 101.87 23.5091V23.5191ZM113.4 21.7191C112.05 21.7191 110.65 22.3191 110.07 23.6291L111.73 24.3191C112.08 23.6291 112.74 23.3991 113.43 23.3991C114.39 23.3991 115.38 23.9791 115.39 25.0091V25.1391C115.05 24.9491 114.33 24.6591 113.44 24.6591C111.65 24.6591 109.84 25.6391 109.84 27.4691C109.84 29.1391 111.3 30.2191 112.94 30.2191C114.19 30.2191 114.89 29.6591 115.32 28.9991H115.38V29.9591H117.18V25.1691C117.18 22.9491 115.52 21.7091 113.38 21.7091L113.4 21.7191ZM113.17 28.5691C112.56 28.5691 111.71 28.2591 111.71 27.5091C111.71 26.5491 112.77 26.1791 113.69 26.1791C114.51 26.1791 114.9 26.3591 115.39 26.5991C115.25 27.7591 114.25 28.5791 113.17 28.5791V28.5691ZM123.75 21.9891L121.61 27.4091H121.55L119.33 21.9891H117.32L120.65 29.5691L118.75 33.7791H120.7L125.83 21.9891H123.76H123.75ZM106.94 29.9891H108.81V17.4891H106.94V29.9891Z" fill="white"/>
<path d="M20.7198 19.4202L10.0698 30.7202C10.3998 31.9502 11.5198 32.8502 12.8498 32.8502C13.3798 32.8502 13.8798 32.7102 14.3098 32.4502L14.3398 32.4302L26.3198 25.5202L20.7098 19.4102L20.7198 19.4202Z" fill="#EA4335"/>
<path d="M31.4895 17.5022H31.4795L26.3095 14.4922L20.4795 19.6822L26.3295 25.5322L31.4795 22.5622C32.3795 22.0722 32.9895 21.1222 32.9895 20.0322C32.9895 18.9422 32.3895 17.9922 31.4895 17.5122V17.5022Z" fill="#FBBC04"/>
<path d="M10.0697 9.28125C10.0097 9.52125 9.96973 9.76125 9.96973 10.0213V29.9912C9.96973 30.2512 9.99973 30.4913 10.0697 30.7313L21.0797 19.7212L10.0697 9.28125Z" fill="#4285F4"/>
<path d="M20.7997 20.0006L26.3097 14.4906L14.3397 7.55063C13.9097 7.29063 13.3997 7.14062 12.8497 7.14062C11.5197 7.14062 10.3997 8.05063 10.0697 9.27063L20.7997 19.9906V20.0006Z" fill="#34A853"/>
</g>
<defs>
<clipPath id="clip0_1_389">
<rect width="135" height="40" fill="white"/>
</clipPath>
</defs>
</svg>
